<svg xmlns="http://www.w3.org/2000/svg" viewBox="0 0 460.37 110.25"><defs><style>.cls-1{fill:#22376d;}.cls-2{fill:#1d2345;}.cls-3{fill:#e22623;}.cls-4{fill:#fed016;}.cls-5{fill:#fff;}.cls-6{fill:#ffd016;}</style></defs><title>LOGO-COMPLETO_1</title><g id="Capa_2" data-name="Capa 2"><g id="Capa_1-2" data-name="Capa 1"><rect class="cls-1" x="118.19" width="2.44" height="110.25"/><path class="cls-1" d="M137.93,19.25h15.92V89.64H137.93Z" transform="translate(0 -9.2)"/><path class="cls-1" d="M165.89,80.76,175,69.84c5,4.36,11.5,7.36,17.29,7.36,6.65,0,9.9-2.62,9.9-6.8,0-4.43-4-5.85-10.15-8.38l-9.15-3.9c-7.3-3-14.21-9-14.21-19.19,0-11.66,10.42-21,25.07-21a32.55,32.55,0,0,1,22.65,9.23l-8,10c-4.64-3.56-9.05-5.52-14.62-5.52s-9,2.29-9,6.31c0,4.32,4.6,5.89,10.74,8.34l9,3.63c8.6,3.48,14,9.2,14,19.15,0,11.69-9.75,21.82-26.52,21.82A38.78,38.78,0,0,1,165.89,80.76Z" transform="translate(0 -9.2)"/><path class="cls-1" d="M242.1,32.6H222.73V19.25h54.66V32.6H258v57H242.1Z" transform="translate(0 -9.2)"/><path class="cls-1" d="M288.38,19.25h25.35c14.93,0,27.17,5.18,27.17,21.92,0,16.18-12.24,23.14-27.17,23.14h-9.44V89.64H288.38Zm24.05,32.42c8.37,0,12.87-3.58,12.87-10.5s-4.5-9.29-12.87-9.29h-8.14V51.67Zm-1.61,8.44,11-10.18,22.46,39.71H326.48Z" transform="translate(0 -9.2)"/><path class="cls-1" d="M350.26,19.25h44.11V32.6H366.18V46.73h24V60.08h-24V76.29h29.27V89.64H350.26Z" transform="translate(0 -9.2)"/><path class="cls-1" d="M405.12,19.25H425c21.5,0,35.35,10.7,35.35,34.89s-13.85,35.5-34.46,35.5H405.12Zm18.94,57.58c11.94,0,20-5.86,20-22.69s-8.07-22.08-20-22.08h-3V76.83Z" transform="translate(0 -9.2)"/><path class="cls-1" d="M136.08,99.72h2.2v12.42h-2.2Z" transform="translate(0 -9.2)"/><path class="cls-1" d="M140.68,99.72h2.26l3.86,7,1.29,2.65h.07c-.1-1.28-.28-2.86-.28-4.24V99.72H150v12.42h-2.26l-3.87-7-1.28-2.65h-.08c.11,1.32.29,2.82.29,4.2v5.44h-2.1Z" transform="translate(0 -9.2)"/><path class="cls-1" d="M151.53,110.55l1.29-1.51a4.88,4.88,0,0,0,3.23,1.41c1.4,0,2.17-.63,2.17-1.6s-.8-1.35-1.93-1.83l-1.7-.73a3.57,3.57,0,0,1-2.51-3.3c0-2,1.75-3.5,4.17-3.5a5.46,5.46,0,0,1,3.83,1.58l-1.13,1.4a4,4,0,0,0-2.7-1.07c-1.18,0-1.95.55-1.95,1.46s.95,1.34,2,1.76l1.68.7a3.46,3.46,0,0,1,2.51,3.36c0,2-1.67,3.69-4.46,3.69A6.41,6.41,0,0,1,151.53,110.55Z" transform="translate(0 -9.2)"/><path class="cls-1" d="M164.11,101.57h-3.59V99.72h9.38v1.85h-3.59v10.57h-2.2Z" transform="translate(0 -9.2)"/><path class="cls-1" d="M171.21,99.72h2.21v12.42h-2.21Z" transform="translate(0 -9.2)"/><path class="cls-1" d="M178.32,101.57h-3.59V99.72h9.38v1.85h-3.59v10.57h-2.2Z" transform="translate(0 -9.2)"/><path class="cls-1" d="M185.36,106.69v-7h2.21v7.14c0,2.7,1,3.59,2.51,3.59s2.57-.89,2.57-3.59V99.72h2.12v7c0,4.08-1.81,5.68-4.69,5.68S185.36,110.77,185.36,106.69Z" transform="translate(0 -9.2)"/><path class="cls-1" d="M199.62,101.57H196V99.72h9.38v1.85h-3.59v10.57h-2.2Z" transform="translate(0 -9.2)"/><path class="cls-1" d="M205.57,105.88c0-4,2.25-6.39,5.48-6.39s5.48,2.38,5.48,6.39-2.24,6.49-5.48,6.49S205.57,109.9,205.57,105.88Zm8.7,0c0-2.79-1.26-4.48-3.22-4.48s-3.21,1.69-3.21,4.48,1.26,4.57,3.21,4.57S214.27,108.67,214.27,105.88Z" transform="translate(0 -9.2)"/><path class="cls-1" d="M220.46,110.55l1.29-1.51a4.9,4.9,0,0,0,3.23,1.41c1.4,0,2.17-.63,2.17-1.6s-.8-1.35-1.93-1.83l-1.7-.73A3.57,3.57,0,0,1,221,103c0-2,1.75-3.5,4.17-3.5a5.46,5.46,0,0,1,3.83,1.58l-1.13,1.4a4,4,0,0,0-2.7-1.07c-1.18,0-1.94.55-1.94,1.46s.94,1.34,2,1.76l1.68.7a3.44,3.44,0,0,1,2.51,3.36c0,2-1.67,3.69-4.46,3.69A6.41,6.41,0,0,1,220.46,110.55Z" transform="translate(0 -9.2)"/><path class="cls-1" d="M230.85,106.69v-7h2.2v7.14c0,2.7,1,3.59,2.52,3.59s2.56-.89,2.56-3.59V99.72h2.12v7c0,4.08-1.8,5.68-4.68,5.68S230.85,110.77,230.85,106.69Z" transform="translate(0 -9.2)"/><path class="cls-1" d="M242.59,99.72h3.92c2.76,0,4.8,1,4.8,3.83s-2.05,4-4.73,4H244.8v4.57h-2.21Zm3.81,6.09c1.86,0,2.74-.74,2.74-2.26s-1-2.07-2.81-2.07H244.8v4.33Z" transform="translate(0 -9.2)"/><path class="cls-1" d="M252.89,99.72h7.48v1.85H255.1v3.18h4.46v1.86H255.1v3.68h5.46v1.85h-7.67Z" transform="translate(0 -9.2)"/><path class="cls-1" d="M262.35,99.72h4.19c2.59,0,4.58.91,4.58,3.68s-2,3.88-4.58,3.88h-2v4.86h-2.21Zm4,5.8c1.71,0,2.63-.71,2.63-2.12s-.92-1.92-2.63-1.92h-1.75v4Zm-.18,1.18,1.59-1.32,3.88,6.76h-2.47Z" transform="translate(0 -9.2)"/><path class="cls-1" d="M272.84,99.72H275v12.42h-2.2Z" transform="translate(0 -9.2)"/><path class="cls-1" d="M276.79,105.88c0-4,2.24-6.39,5.47-6.39s5.48,2.38,5.48,6.39-2.24,6.49-5.48,6.49S276.79,109.9,276.79,105.88Zm8.69,0c0-2.79-1.26-4.48-3.22-4.48s-3.21,1.69-3.21,4.48,1.26,4.57,3.21,4.57S285.48,108.67,285.48,105.88Z" transform="translate(0 -9.2)"/><path class="cls-1" d="M289.49,99.72h4.18c2.59,0,4.58.91,4.58,3.68s-2,3.88-4.58,3.88h-2v4.86h-2.2Zm4,5.8c1.7,0,2.62-.71,2.62-2.12s-.92-1.92-2.62-1.92h-1.76v4Zm-.19,1.18,1.59-1.32,3.88,6.76h-2.47Z" transform="translate(0 -9.2)"/><path class="cls-1" d="M305.52,101.57h-3.59V99.72h9.38v1.85h-3.59v10.57h-2.2Z" transform="translate(0 -9.2)"/><path class="cls-1" d="M312.63,99.72h7.47v1.85h-5.27v3.18h4.47v1.86h-4.47v3.68h5.46v1.85h-7.66ZM315.26,98l3-2.55,1.19,1.43-3.19,2.22Z" transform="translate(0 -9.2)"/><path class="cls-1" d="M321.44,106c0-4.07,2.54-6.48,5.69-6.48a4.94,4.94,0,0,1,3.58,1.57l-1.18,1.42a3.24,3.24,0,0,0-2.36-1.08c-2,0-3.47,1.71-3.47,4.5s1.34,4.55,3.42,4.55a3.51,3.51,0,0,0,2.65-1.27l1.18,1.38a5,5,0,0,1-3.91,1.81C323.91,112.37,321.44,110.08,321.44,106Z" transform="translate(0 -9.2)"/><path class="cls-1" d="M332.27,99.72h2.27l3.86,7,1.28,2.65h.08c-.11-1.28-.28-2.86-.28-4.24V99.72h2.09v12.42h-2.26l-3.86-7-1.28-2.65h-.08c.11,1.32.28,2.82.28,4.2v5.44h-2.1Z" transform="translate(0 -9.2)"/><path class="cls-1" d="M344,99.72h2.2v12.42H344Z" transform="translate(0 -9.2)"/><path class="cls-1" d="M347.92,106c0-4.07,2.55-6.48,5.69-6.48a4.92,4.92,0,0,1,3.58,1.57L356,102.48a3.22,3.22,0,0,0-2.35-1.08c-2,0-3.47,1.71-3.47,4.5s1.33,4.55,3.42,4.55a3.51,3.51,0,0,0,2.65-1.27l1.17,1.38a4.94,4.94,0,0,1-3.91,1.81C350.4,112.37,347.92,110.08,347.92,106Z" transform="translate(0 -9.2)"/><path class="cls-1" d="M357.48,105.88c0-4,2.24-6.39,5.48-6.39s5.48,2.38,5.48,6.39-2.25,6.49-5.48,6.49S357.48,109.9,357.48,105.88Zm8.69,0c0-2.79-1.26-4.48-3.21-4.48s-3.22,1.69-3.22,4.48,1.26,4.57,3.22,4.57S366.17,108.67,366.17,105.88Z" transform="translate(0 -9.2)"/><path class="cls-1" d="M373.22,99.72h4.18c2.59,0,4.58.91,4.58,3.68s-2,3.88-4.58,3.88h-2v4.86h-2.2Zm4,5.8c1.7,0,2.63-.71,2.63-2.12s-.93-1.92-2.63-1.92h-1.76v4ZM377,106.7l1.6-1.32,3.87,6.76H380Z" transform="translate(0 -9.2)"/><path class="cls-1" d="M383.71,99.72h7.47v1.85h-5.27v3.18h4.47v1.86h-4.47v3.68h5.46v1.85h-7.66Z" transform="translate(0 -9.2)"/><path class="cls-1" d="M395.24,107.52l-3.74-7.8h2.36l1.35,3.17c.37.93.72,1.79,1.11,2.73h.07c.39-.94.79-1.8,1.15-2.73l1.35-3.17h2.29l-3.73,7.8v4.62h-2.21Z" transform="translate(0 -9.2)"/><path class="cls-1" d="M404.63,99.72h3.31c3.81,0,6.05,2,6.05,6.16s-2.24,6.26-5.94,6.26h-3.42Zm3.16,10.63c2.5,0,3.94-1.42,3.94-4.47s-1.44-4.38-3.94-4.38h-1v8.85Z" transform="translate(0 -9.2)"/><path class="cls-1" d="M418,99.72h2.58l4.06,12.42h-2.34l-1.89-6.61c-.39-1.32-.76-2.73-1.12-4.1h-.08c-.34,1.38-.71,2.78-1.1,4.1l-1.91,6.61h-2.25Zm-1.66,7.33h5.86v1.72h-5.86Z" transform="translate(0 -9.2)"/><path class="cls-1" d="M423.44,99.72h2.33l1.75,6.24c.4,1.41.68,2.63,1.09,4h.08c.42-1.41.7-2.63,1.09-4l1.73-6.24h2.25l-3.85,12.42H427.3Z" transform="translate(0 -9.2)"/><path class="cls-1" d="M434.4,99.72h2.2v12.42h-2.2Z" transform="translate(0 -9.2)"/><path class="cls-1" d="M439,99.72h3.31c3.81,0,6.06,2,6.06,6.16s-2.25,6.26-5.95,6.26H439Zm3.16,10.63c2.5,0,3.94-1.42,3.94-4.47s-1.44-4.38-3.94-4.38h-1v8.85Z" transform="translate(0 -9.2)"/></g><g id="logo_down" data-name="logo down"><polyline class="cls-2" points="50.64 0 59.64 0 59.64 2.25 50.64 2.25 50.64 0"/><rect class="cls-3" x="59.64" width="9.75" height="2.25"/><polyline class="cls-1" points="25.42 12.61 31.66 5.81 37.47 12.61"/><polyline class="cls-1" points="44.22 12.61 50.45 5.81 56.27 12.61"/><polyline class="cls-1" points="62.92 12.61 69.16 5.81 74.97 12.61"/><polyline class="cls-1" points="66.11 3.8 59.88 10.59 54.06 3.8"/><polyline class="cls-1" points="46.98 3.8 40.75 10.59 34.94 3.8"/><polygon class="cls-1" points="25.8 14.95 46.84 42.14 39.86 14.95 25.8 14.95"/><polygon class="cls-1" points="42.72 14.95 50.25 42.69 57.95 14.95 42.72 14.95"/><polygon class="cls-1" points="60.77 14.95 53.73 42.14 74.83 14.95 60.77 14.95"/><path class="cls-1" d="M0,51.89,31.75,69.64l18.63-8.87,18.75,8.87L100.5,51.89v67H0Zm7.88,60.5H93V62.89L69,75.77l-18.62-8.5-18.63,8.5L7.88,62.89Z" transform="translate(0 -9.2)"/><polygon class="cls-4" points="7.88 56.34 31.94 69 50.25 60.38 69.25 69 93 56.34 93 53.69 69 66.56 50.38 58.06 31.75 66.56 7.88 53.69 7.88 56.34"/><polygon class="cls-1" points="14.02 64.78 31.36 73.69 50.52 64.78 69.33 73.69 86.86 64.78 86.86 97.31 14.02 97.31 14.02 64.78"/><path class="cls-5" d="M36,102.86H32.77V89.59l-2.07.79V87l2.54-1.15H36Z" transform="translate(0 -9.2)"/><path class="cls-5" d="M45.06,94.4l.58.42a1.77,1.77,0,0,1-.89.79,3.5,3.5,0,0,1-1.4.25,4,4,0,0,1-3.78-2.37A6,6,0,0,1,39,90.87h0A6.32,6.32,0,0,1,39.61,88a4,4,0,0,1,1.71-1.78,5.61,5.61,0,0,1,2.7-.61,5.41,5.41,0,0,1,2.69.63,4,4,0,0,1,1.7,1.8A6.38,6.38,0,0,1,49,90.92h0a7.37,7.37,0,0,1-.25,1.84,16,16,0,0,1-.69,2.14l-.12.33a3.09,3.09,0,0,1-.14.32l-3,7.3h-3.4Zm.27-2.08a2.38,2.38,0,0,0,.46-1.54h0a2.21,2.21,0,0,0-.46-1.49A1.69,1.69,0,0,0,44,88.76a1.67,1.67,0,0,0-1.32.53,2.18,2.18,0,0,0-.46,1.49h0a2.27,2.27,0,0,0,.46,1.53,1.87,1.87,0,0,0,2.63,0Z" transform="translate(0 -9.2)"/><path class="cls-5" d="M57.38,94.4l.57.42a1.75,1.75,0,0,1-.88.79,3.54,3.54,0,0,1-1.4.25,4.09,4.09,0,0,1-2.27-.62,4.13,4.13,0,0,1-1.52-1.75,6,6,0,0,1-.54-2.62h0A6.32,6.32,0,0,1,51.93,88a4.07,4.07,0,0,1,1.7-1.78,5.68,5.68,0,0,1,2.71-.61,5.43,5.43,0,0,1,2.69.63,4.06,4.06,0,0,1,1.7,1.8,6.38,6.38,0,0,1,.59,2.85h0a7.86,7.86,0,0,1-.25,1.84,16,16,0,0,1-.69,2.14l-.12.33c0,.11-.09.22-.14.32l-3,7.3H53.68Zm.26-2.08a2.32,2.32,0,0,0,.47-1.54h0a2.16,2.16,0,0,0-.47-1.49,1.9,1.9,0,0,0-2.62,0,2.18,2.18,0,0,0-.47,1.49h0A2.28,2.28,0,0,0,55,92.32a1.65,1.65,0,0,0,1.32.54A1.62,1.62,0,0,0,57.64,92.32Z" transform="translate(0 -9.2)"/><path class="cls-5" d="M66.54,102.43a4.51,4.51,0,0,1-1.76-1.76A6.28,6.28,0,0,1,64,97.94h3.21a2.53,2.53,0,0,0,.58,1.46,1.8,1.8,0,0,0,2.56,0,2.36,2.36,0,0,0,.46-1.56V96.38a2.49,2.49,0,0,0-.42-1.55,1.35,1.35,0,0,0-1.16-.55,2,2,0,0,0-1.18.35,1.8,1.8,0,0,0-.67,1h-3v-9.8h9.15v3.09H67.6v3a2.48,2.48,0,0,1,1-.56,3.9,3.9,0,0,1,1.25-.21,4.12,4.12,0,0,1,2.26.61,3.83,3.83,0,0,1,1.44,1.78A7.31,7.31,0,0,1,74,96.38v1.43a6.25,6.25,0,0,1-.59,2.82,4.13,4.13,0,0,1-1.72,1.79A5.58,5.58,0,0,1,69,103,5,5,0,0,1,66.54,102.43Z" transform="translate(0 -9.2)"/><rect class="cls-6" x="31.28" width="19.36" height="2.25"/></g></g></svg>