<svg xmlns="http://www.w3.org/2000/svg" viewBox="0 0 100.5 109.69"><defs><style>.cls-1{fill:#1d2345;}.cls-2{fill:#e22623;}.cls-3{fill:#fff;}.cls-4{fill:#fed016;}.cls-5{fill:#22376d;}.cls-6{fill:#ffd016;}</style></defs><title>LOGO-BLANCO</title><g id="Capa_2" data-name="Capa 2"><g id="logo_down" data-name="logo down"><polyline class="cls-1" points="50.64 0 59.64 0 59.64 2.25 50.64 2.25 50.64 0"/><rect class="cls-2" x="59.64" width="9.75" height="2.25"/><polyline class="cls-3" points="25.42 12.61 31.66 5.81 37.47 12.61"/><polyline class="cls-3" points="44.22 12.61 50.45 5.81 56.27 12.61"/><polyline class="cls-3" points="62.92 12.61 69.16 5.81 74.97 12.61"/><polyline class="cls-3" points="66.11 3.8 59.88 10.59 54.06 3.8"/><polyline class="cls-3" points="46.98 3.8 40.75 10.59 34.94 3.8"/><polygon class="cls-3" points="25.8 14.95 46.84 42.14 39.86 14.95 25.8 14.95"/><polygon class="cls-3" points="42.72 14.95 50.25 42.69 57.95 14.95 42.72 14.95"/><polygon class="cls-3" points="60.77 14.95 53.73 42.14 74.83 14.95 60.77 14.95"/><path class="cls-3" d="M0,42.69,31.75,60.44l18.63-8.88,18.75,8.88L100.5,42.69v67H0Zm7.88,60.5H93V53.69L69,66.56l-18.62-8.5-18.63,8.5L7.88,53.69Z"/><polygon class="cls-4" points="7.88 56.34 31.94 69 50.25 60.38 69.25 69 93 56.34 93 53.69 69 66.56 50.38 58.06 31.75 66.56 7.88 53.69 7.88 56.34"/><polygon class="cls-3" points="14.02 64.78 31.36 73.69 50.52 64.78 69.33 73.69 86.86 64.78 86.86 97.31 14.02 97.31 14.02 64.78"/><path class="cls-5" d="M36,93.66H32.77V80.39l-2.07.79V77.77l2.54-1.15H36Z"/><path class="cls-5" d="M45.06,85.2l.58.42a1.77,1.77,0,0,1-.89.79,3.5,3.5,0,0,1-1.4.25,4,4,0,0,1-3.78-2.37A6,6,0,0,1,39,81.67h0a6.26,6.26,0,0,1,.58-2.83,4,4,0,0,1,1.71-1.78,6.21,6.21,0,0,1,5.39,0,4.08,4.08,0,0,1,1.7,1.81A6.37,6.37,0,0,1,49,81.71v0a7.37,7.37,0,0,1-.25,1.84,16.42,16.42,0,0,1-.69,2.14l-.12.33c0,.11-.09.21-.14.32l-3,7.3h-3.4Zm.27-2.08a2.39,2.39,0,0,0,.46-1.55h0a2.2,2.2,0,0,0-.46-1.48A1.66,1.66,0,0,0,44,79.56a1.64,1.64,0,0,0-1.32.53,2.15,2.15,0,0,0-.46,1.48v0a2.27,2.27,0,0,0,.46,1.53,1.87,1.87,0,0,0,2.63,0Z"/><path class="cls-5" d="M57.38,85.2l.57.42a1.75,1.75,0,0,1-.88.79,3.54,3.54,0,0,1-1.4.25,4,4,0,0,1-3.79-2.37,6,6,0,0,1-.54-2.62h0a6.26,6.26,0,0,1,.59-2.83,4.07,4.07,0,0,1,1.7-1.78,6.23,6.23,0,0,1,5.4,0,4.14,4.14,0,0,1,1.7,1.81,6.37,6.37,0,0,1,.59,2.84v0a7.86,7.86,0,0,1-.25,1.84,16.42,16.42,0,0,1-.69,2.14l-.12.33-.14.32-3,7.3H53.68Zm.26-2.08a2.33,2.33,0,0,0,.47-1.55h0a2.15,2.15,0,0,0-.47-1.48,1.9,1.9,0,0,0-2.62,0,2.15,2.15,0,0,0-.47,1.48v0A2.28,2.28,0,0,0,55,83.12a1.65,1.65,0,0,0,1.32.54A1.62,1.62,0,0,0,57.64,83.12Z"/><path class="cls-5" d="M66.54,93.23a4.51,4.51,0,0,1-1.76-1.76A6.28,6.28,0,0,1,64,88.73h3.21a2.47,2.47,0,0,0,.58,1.46,1.8,1.8,0,0,0,2.56,0,2.31,2.31,0,0,0,.46-1.55V87.18a2.52,2.52,0,0,0-.42-1.56,1.37,1.37,0,0,0-1.16-.54,2,2,0,0,0-1.18.35,1.77,1.77,0,0,0-.67,1h-3V76.62h9.15v3.09H67.6v3a2.47,2.47,0,0,1,1-.55A3.9,3.9,0,0,1,69.84,82a4,4,0,0,1,2.26.61,3.83,3.83,0,0,1,1.44,1.78A7.24,7.24,0,0,1,74,87.18v1.43a6.25,6.25,0,0,1-.59,2.82,4.13,4.13,0,0,1-1.72,1.79,5.58,5.58,0,0,1-2.72.61A5,5,0,0,1,66.54,93.23Z"/><rect class="cls-6" x="31.28" width="19.36" height="2.25"/></g></g></svg>